<svg viewBox="253.5 207.8099173553719 975 485.5371900826446" fill="none" xmlns="http://www.w3.org/2000/svg" xmlns:xlink="http://www.w3.org/1999/xlink" overflow="visible" width="975px" height="485.5371900826446px"><g id="Master/Stickers/Birds Small Group"><path id="Path" d="M633.535 681H632.165C629.661 680.667 627.396 679.334 625.88 677.303C624.364 675.272 623.726 672.713 624.109 670.204C626.794 651.905 629.802 631.149 639.524 612.958C651.045 591.366 670.864 577.682 691.248 577.007C704.556 576.767 717.307 582.376 726.16 592.365C728.145 594.572 729.899 596.978 731.397 599.544C735.067 596.742 739.143 594.521 743.482 592.959C761.416 586.779 781.245 593.465 791.841 609.265C802.437 625.065 801.163 646.046 788.734 660.434C785.241 664.294 779.295 664.578 775.454 661.068C771.612 657.557 771.33 651.582 774.823 647.721C780.663 640.669 781.829 630.824 777.797 622.592C773.765 614.36 765.291 609.282 756.168 609.633C747.045 609.983 738.981 615.696 735.586 624.213C733.986 628.782 729.206 631.394 724.52 630.26C719.834 629.126 716.761 624.614 717.405 619.814C717.858 614.315 715.895 608.892 712.034 604.969C706.91 599.154 699.541 595.839 691.812 595.873C678.384 596.305 664.258 606.535 656.04 621.892C647.822 637.249 645.298 655.332 642.612 672.903C641.958 677.467 638.121 680.889 633.535 681V681Z" fill="#847E7A"/><path id="Path_2" d="M407.855 499C402.938 499.013 398.85 495.214 398.498 490.305C398.337 487.938 398.337 485.562 398.498 483.194C398.149 468.864 395.817 458.076 391.178 449.569C386.218 440.445 376.03 432.153 366.216 434.005C361.627 435.278 357.813 438.479 355.76 442.78C353.543 446.559 353.168 451.143 354.741 455.232C356.843 459.953 354.737 465.487 350.03 467.614C345.323 469.741 339.783 467.661 337.635 462.96C333.661 453.63 334.205 442.988 339.11 434.112C343.76 424.66 352.451 417.837 362.731 415.569C379.462 412.403 397.935 422.681 407.668 440.606C409.346 443.688 410.772 446.901 411.931 450.214C415.831 445.722 420.543 442.008 425.819 439.265C444.274 430.01 466.618 434.067 480.649 449.221C484.006 453.025 483.736 458.81 480.04 462.284C476.344 465.759 470.558 465.666 466.975 462.075C458.62 453.128 445.427 450.65 434.399 455.956C424.908 460.84 418.312 471.923 417.293 483.57C417.293 485.752 417.293 487.819 417.293 489.769C417.223 494.796 413.199 498.871 408.177 499H407.855Z" fill="#847E7A"/><path id="Path_3" d="M665.548 422H664.869C660.633 421.705 657.108 418.655 656.233 414.527C651.577 392.146 641.605 371.195 627.146 353.419C623.824 349.381 624.425 343.432 628.49 340.132C632.555 336.831 638.543 337.429 641.866 341.467C653.264 355.391 662.216 371.125 668.345 388.006C684.64 367.016 710.549 354.741 736.024 357.925C741.075 358.743 744.567 363.388 743.924 368.432C743.28 373.476 738.731 377.108 733.634 376.648C709.463 373.626 683.472 390.812 674.483 415.768C673.122 419.507 669.55 421.998 665.548 422Z" fill="#847E7A"/><path id="Path_4" d="M1005.14 422C1004.4 422.005 1003.66 421.915 1002.93 421.731C998.818 420.767 995.859 417.182 995.704 412.976L993.007 343.769C992.806 338.578 996.87 334.207 1002.08 334.007C1007.3 333.807 1011.69 337.853 1011.89 343.044L1013.7 389.907C1019.94 385.753 1026.95 382.886 1034.33 381.475C1049.16 378.412 1064.6 382.04 1076.49 391.384C1080.55 394.647 1081.18 400.569 1077.9 404.611C1074.63 408.652 1068.68 409.284 1064.62 406.021C1057.05 400.155 1047.26 397.932 1037.89 399.951C1027.56 401.806 1018.58 408.118 1013.37 417.193C1011.7 420.154 1008.56 421.99 1005.14 422V422Z" fill="#847E7A"/><path id="Path_5" d="M313.506 346C310.746 346.007 308.123 344.804 306.338 342.713C304.554 340.621 303.788 337.855 304.247 335.152C305.61 324.29 301.287 313.491 292.787 306.524C285.755 300.5 277.328 298.261 270.297 300.527C265.361 302.117 260.062 299.432 258.461 294.53C256.86 289.628 259.564 284.365 264.499 282.775C277.919 278.484 293.002 282.082 305.052 292.397C312.579 298.823 318.155 307.204 321.155 316.6C338.898 303.081 361.339 297.152 383.501 300.127C386.949 300.455 389.936 302.64 391.272 305.814C392.609 308.988 392.078 312.635 389.892 315.303C387.705 317.971 384.217 319.228 380.817 318.572C357.964 315.703 335.243 324.778 320.753 342.562C318.972 344.721 316.316 345.981 313.506 346V346Z" fill="#847E7A"/><path id="Path_6" d="M1114.49 284.999C1113.3 284.996 1112.11 284.778 1111 284.356C1107.92 283.157 1105.7 280.442 1105.16 277.207C1101.29 254.689 1083.52 235.945 1062.94 232.625C1059.6 232.085 1056.81 229.822 1055.61 226.69C1054.42 223.557 1055 220.031 1057.14 217.438C1059.28 214.846 1062.66 213.583 1066 214.123C1089.82 217.979 1110.81 236.427 1119.95 260.124C1147.42 241.213 1177.76 226.752 1209.82 217.283C1214.84 215.804 1220.11 218.627 1221.6 223.588C1223.1 228.55 1220.25 233.771 1215.23 235.249C1180.9 245.438 1148.71 261.674 1120.2 283.178C1118.55 284.388 1116.54 285.028 1114.49 284.999V284.999Z" fill="#847E7A"/></g></svg>